# xmcd
#
# Track frame offsets:
#  156
#  19470
#  46714
#  64026
#  86936
#  103770
#  121354
#  143835
#  166328
#  184676
#
# Disc length: 2762 seconds
#
# Revision: 0
# Processed by: cddbd v1.5.1PL0 Copyright (c) Steve Scherf et al.
# Submitted via: Collectorz.com Music Collector 6.9
#
DISCID=870ac80a
DTITLE=La Crus - Infinite possibilità
DYEAR=2005
DGENRE=Acoustic Pop - General Alternative - General Pop
TTITLE0=La prima notte di quiete
TTITLE1=Infinite possibilità
TTITLE2=Mondo sii buono
TTITLE3=Su in soffitta
TTITLE4=La strada
TTITLE5=Buongiorno tristezza
TTITLE6=Giorni migliori
TTITLE7=I miei ritratti
TTITLE8=Libera la mente
TTITLE9=Ho ucciso Thurston Moore
EXTD=
EXTT0=
EXTT1=
EXTT2=
EXTT3=
EXTT4=
EXTT5=
EXTT6=
EXTT7=
EXTT8=
EXTT9=
PLAYORDER=
